<svg width="16" height="16" viewBox="0 0 16 16" fill="none" xmlns="http://www.w3.org/2000/svg">
<path d="M15.379 15.379C14.7615 15.9965 13.7482 15.9965 13.1307 15.379L7.92108 10.1538L2.71151 15.379C2.09397 15.9965 1.0807 15.9965 0.463155 15.379C-0.154385 14.7615 -0.154385 13.7482 0.463155 13.1307L5.68857 7.92108L0.463155 2.71151C-0.154385 2.09397 -0.154385 1.0807 0.463155 0.463155C1.0807 -0.154385 2.09397 -0.154385 2.71151 0.463155L7.92108 5.68838L13.1307 0.463155C13.7482 -0.154385 14.7615 -0.154385 15.379 0.463155C15.9965 1.0807 15.9965 2.09397 15.379 2.71151L10.1536 7.92108L15.379 13.1307C15.9965 13.7482 15.9965 14.7615 15.379 15.379Z" fill="black"/>
</svg>
