<svg width="82" height="68" viewBox="0 0 82 68" fill="none" xmlns="http://www.w3.org/2000/svg">
<path d="M15.7351 26L9.64489 15.7088H8.67543L6.96023 26H0.0497159L4.27557 0.545454H11.1861L9.59517 10.1406H10.4901L19.3892 0.545454H28.0895L16.3814 12.7756L24.4105 26H15.7351ZM32.8778 26H25.4204L38.0482 0.545454H47.4942L51.6704 26H44.213L41.7272 7.5554H41.5283L32.8778 26ZM33.176 15.9574H47.1959L46.301 21.1278H32.2812L33.176 15.9574ZM52.2825 32.1151L54.1717 20.6804H55.9615C56.6161 20.3158 57.2375 19.8021 57.8258 19.1392C58.4224 18.4763 58.9941 17.5276 59.541 16.293C60.0879 15.0584 60.6182 13.4053 61.1319 11.3338L63.7669 0.545454H81.764L78.4331 20.6804H81.1177L79.2285 32.1151H72.5666L73.5609 26H59.9387L58.9444 32.1151H52.2825ZM63.8663 20.6804H71.7711L74.1575 6.11364H69.0368L67.7939 11.3338C67.421 12.8916 67.0191 14.2546 66.5882 15.4229C66.1574 16.583 65.7099 17.5939 65.2459 18.4556C64.7902 19.3091 64.3303 20.0507 63.8663 20.6804ZM0.0497159 68L4.27557 42.5455H15.2628C17.152 42.5455 18.7429 42.9183 20.0355 43.6641C21.3281 44.4098 22.2562 45.458 22.8196 46.8086C23.3831 48.1592 23.5156 49.7377 23.2173 51.544C22.919 53.3835 22.2562 54.9703 21.2287 56.3043C20.2095 57.6301 18.9086 58.6534 17.326 59.3743C15.7517 60.0869 13.9867 60.4432 12.0312 60.4432H5.46875L6.36364 55.0739H11.5341C12.3627 55.0739 13.0919 54.933 13.7216 54.6513C14.3513 54.3613 14.8609 53.9553 15.2504 53.4332C15.6398 52.9029 15.8925 52.2732 16.0085 51.544C16.1245 50.8149 16.0707 50.1934 15.8469 49.6797C15.6315 49.1577 15.2586 48.7599 14.7283 48.4865C14.2063 48.2048 13.5393 48.0639 12.7273 48.0639H10.2912L6.96023 68H0.0497159ZM30.2273 51.0966H35.4972C37.6432 51.0966 39.4579 51.4405 40.9411 52.1282C42.4325 52.8159 43.518 53.7854 44.1974 55.0366C44.8852 56.2878 45.084 57.7585 44.794 59.4489C44.5206 61.1392 43.8287 62.6265 42.7184 63.9109C41.6081 65.1952 40.1912 66.1978 38.4677 66.9187C36.7442 67.6396 34.8094 68 32.6634 68H23.1676L27.3935 42.5455H34.304L30.973 62.581H33.5582C34.3951 62.581 35.1201 62.4442 35.7333 62.1708C36.3548 61.8974 36.8519 61.5204 37.2248 61.0398C37.6059 60.5592 37.8421 60.0123 37.9332 59.3991C38.0907 58.5291 37.8877 57.8082 37.3242 57.2365C36.7608 56.6565 35.8535 56.3665 34.6023 56.3665H29.3324L30.2273 51.0966ZM56.2784 42.5455L52.0526 68H45.142L49.3679 42.5455H56.2784Z" fill="url(#paint0_linear_2257_53)"/>
<defs>
<linearGradient id="paint0_linear_2257_53" x1="0" y1="44.5" x2="127" y2="44.5" gradientUnits="userSpaceOnUse">
<stop stop-color="#FA86D9"/>
<stop offset="0.499" stop-color="#F04FC3"/>
<stop offset="1" stop-color="#E041B3"/>
</linearGradient>
</defs>
</svg>
