<svg width="71" height="58" viewBox="0 0 71 58" fill="none" xmlns="http://www.w3.org/2000/svg">
<g filter="url(#filter0_i_2283_38)">
<path d="M13.4872 22L8.26705 13.179H7.43608L5.96591 22H0.0426136L3.66477 0.181818H9.58807L8.22443 8.40625H8.99148L16.6193 0.181818H24.0767L14.0412 10.6648L20.9233 22H13.4872ZM28.1809 22H21.7889L32.6127 0.181818H40.7093L44.2889 22H37.8968L35.7662 6.19034H35.5957L28.1809 22ZM28.4366 13.392H40.4537L39.6866 17.8239H27.6696L28.4366 13.392ZM44.8136 27.2415L46.4329 17.4403H47.967C48.5281 17.1278 49.0607 16.6875 49.565 16.1193C50.0763 15.5511 50.5664 14.7379 51.0352 13.6797C51.5039 12.6214 51.9585 11.2045 52.3988 9.42898L54.6573 0.181818H70.0835L67.2283 17.4403H69.5295L67.9102 27.2415H62.1999L63.0522 22H51.3761L50.5238 27.2415H44.8136ZM54.7425 17.4403H61.5181L63.5636 4.95455H59.1744L58.109 9.42898C57.7894 10.7642 57.445 11.9325 57.0756 12.9339C56.7063 13.9283 56.3228 14.7947 55.9251 15.5334C55.5344 16.2649 55.1403 16.9006 54.7425 17.4403ZM0.0426136 58L3.66477 36.1818H13.0824C14.7017 36.1818 16.0653 36.5014 17.1733 37.1406C18.2813 37.7798 19.0767 38.6783 19.5597 39.8359C20.0426 40.9936 20.1563 42.3466 19.9006 43.8949C19.6449 45.4716 19.0767 46.8317 18.196 47.9751C17.3224 49.1115 16.2074 49.9886 14.8509 50.6065C13.5014 51.2173 11.9886 51.5227 10.3125 51.5227H4.6875L5.45455 46.9205H9.88636C10.5966 46.9205 11.2216 46.7997 11.7614 46.5582C12.3011 46.3097 12.7379 45.9616 13.0717 45.5142C13.4055 45.0597 13.6222 44.5199 13.7216 43.8949C13.821 43.2699 13.7749 42.7372 13.5831 42.2969C13.3984 41.8494 13.0788 41.5085 12.6243 41.2741C12.1768 41.0327 11.6051 40.9119 10.9091 40.9119H8.82102L5.96591 58H0.0426136ZM25.9091 43.5114H30.4261C32.2656 43.5114 33.821 43.8061 35.0923 44.3956C36.3707 44.9851 37.3011 45.8161 37.8835 46.8885C38.473 47.9609 38.6435 49.2216 38.3949 50.6705C38.1605 52.1193 37.5675 53.3942 36.6158 54.495C35.6641 55.5959 34.4496 56.4553 32.9723 57.0732C31.495 57.6911 29.8366 58 27.9972 58H19.858L23.4801 36.1818H29.4034L26.5483 53.3551H28.7642C29.4815 53.3551 30.103 53.2379 30.6286 53.0036C31.1612 52.7692 31.5874 52.446 31.907 52.0341C32.2337 51.6222 32.4361 51.1534 32.5142 50.6278C32.6491 49.8821 32.4751 49.2642 31.9922 48.7741C31.5092 48.277 30.7315 48.0284 29.6591 48.0284H25.142L25.9091 43.5114ZM48.2386 36.1818L44.6165 58H38.6932L42.3153 36.1818H48.2386Z" fill="#FFDDF5"/>
</g>
<defs>
<filter id="filter0_i_2283_38" x="0.0426025" y="0.181824" width="70.0409" height="61.8182" filterUnits="userSpaceOnUse" color-interpolation-filters="sRGB">
<feFlood flood-opacity="0" result="BackgroundImageFix"/>
<feBlend mode="normal" in="SourceGraphic" in2="BackgroundImageFix" result="shape"/>
<feColorMatrix in="SourceAlpha" type="matrix" values="0 0 0 0 0 0 0 0 0 0 0 0 0 0 0 0 0 0 127 0" result="hardAlpha"/>
<feOffset dy="4"/>
<feGaussianBlur stdDeviation="2"/>
<feComposite in2="hardAlpha" operator="arithmetic" k2="-1" k3="1"/>
<feColorMatrix type="matrix" values="0 0 0 0 0 0 0 0 0 0 0 0 0 0 0 0 0 0 0.25 0"/>
<feBlend mode="normal" in2="shape" result="effect1_innerShadow_2283_38"/>
</filter>
</defs>
</svg>
