<svg width="319" height="47" viewBox="0 0 319 47" fill="none" xmlns="http://www.w3.org/2000/svg">
<path d="M0.160511 46V9.63636H7.84872V24.6399H23.456V9.63636H31.1264V46H23.456V30.9787H7.84872V46H0.160511ZM43.733 46H35.4943L48.0476 9.63636H57.9553L70.4908 46H62.2521L53.1435 17.946H52.8594L43.733 46ZM43.218 31.7067H62.6783V37.7081H43.218V31.7067ZM105.243 22.3672H97.4661C97.324 21.361 97.034 20.4673 96.5961 19.6861C96.1581 18.893 95.5958 18.2183 94.9093 17.6619C94.2227 17.1056 93.4296 16.6794 92.53 16.3835C91.6422 16.0876 90.6775 15.9396 89.6358 15.9396C87.7537 15.9396 86.1143 16.4072 84.7175 17.3423C83.3207 18.2656 82.2376 19.6151 81.4682 21.3906C80.6988 23.1544 80.3141 25.2969 80.3141 27.8182C80.3141 30.4105 80.6988 32.5885 81.4682 34.3523C82.2495 36.116 83.3385 37.4477 84.7353 38.3473C86.132 39.2469 87.7478 39.6967 89.5826 39.6967C90.6124 39.6967 91.5653 39.5606 92.4412 39.2884C93.329 39.0161 94.1162 38.6196 94.8027 38.0987C95.4893 37.5661 96.0575 36.9209 96.5073 36.1634C96.9689 35.4058 97.2885 34.5417 97.4661 33.571L105.243 33.6065C105.042 35.2756 104.539 36.8854 103.734 38.4361C102.941 39.9749 101.869 41.3539 100.52 42.5732C99.1825 43.7805 97.5845 44.7393 95.726 45.4496C93.8794 46.148 91.7902 46.4972 89.4583 46.4972C86.2149 46.4972 83.3148 45.7633 80.758 44.2955C78.213 42.8277 76.2007 40.7029 74.7211 37.9212C73.2533 35.1394 72.5194 31.7718 72.5194 27.8182C72.5194 23.8527 73.2651 20.4792 74.7566 17.6974C76.248 14.9157 78.2722 12.7969 80.829 11.3409C83.3858 9.87311 86.2623 9.1392 89.4583 9.1392C91.5653 9.1392 93.5184 9.43513 95.3176 10.027C97.1287 10.6188 98.7327 11.483 100.129 12.6193C101.526 13.7438 102.663 15.1229 103.539 16.7564C104.426 18.3899 104.994 20.2602 105.243 22.3672ZM109.371 15.9751V9.63636H139.236V15.9751H128.104V46H120.504V15.9751H109.371ZM144.155 46V9.63636H158.501C161.259 9.63636 163.609 10.1631 165.55 11.2166C167.492 12.2583 168.971 13.7083 169.989 15.5668C171.019 17.4134 171.534 19.544 171.534 21.9588C171.534 24.3736 171.013 26.5043 169.971 28.3509C168.93 30.1974 167.421 31.6357 165.444 32.6655C163.479 33.6953 161.099 34.2102 158.306 34.2102H149.162V28.049H157.063C158.543 28.049 159.762 27.7945 160.721 27.2855C161.691 26.7647 162.413 26.0485 162.887 25.1371C163.372 24.2138 163.615 23.1544 163.615 21.9588C163.615 20.7514 163.372 19.6979 162.887 18.7983C162.413 17.8868 161.691 17.1825 160.721 16.6854C159.75 16.1764 158.519 15.9219 157.028 15.9219H151.843V46H144.155ZM209.944 27.8182C209.944 31.7836 209.192 35.1572 207.689 37.9389C206.197 40.7206 204.161 42.8454 201.581 44.3132C199.012 45.7692 196.124 46.4972 192.916 46.4972C189.685 46.4972 186.785 45.7633 184.216 44.2955C181.647 42.8277 179.617 40.7029 178.126 37.9212C176.634 35.1394 175.888 31.7718 175.888 27.8182C175.888 23.8527 176.634 20.4792 178.126 17.6974C179.617 14.9157 181.647 12.7969 184.216 11.3409C186.785 9.87311 189.685 9.1392 192.916 9.1392C196.124 9.1392 199.012 9.87311 201.581 11.3409C204.161 12.7969 206.197 14.9157 207.689 17.6974C209.192 20.4792 209.944 23.8527 209.944 27.8182ZM202.149 27.8182C202.149 25.2495 201.764 23.0833 200.995 21.3196C200.237 19.5559 199.166 18.2183 197.781 17.3068C196.396 16.3954 194.775 15.9396 192.916 15.9396C191.058 15.9396 189.436 16.3954 188.051 17.3068C186.666 18.2183 185.589 19.5559 184.82 21.3196C184.062 23.0833 183.683 25.2495 183.683 27.8182C183.683 30.3868 184.062 32.553 184.82 34.3168C185.589 36.0805 186.666 37.4181 188.051 38.3295C189.436 39.241 191.058 39.6967 192.916 39.6967C194.775 39.6967 196.396 39.241 197.781 38.3295C199.166 37.4181 200.237 36.0805 200.995 34.3168C201.764 32.553 202.149 30.3868 202.149 27.8182ZM215.639 9.63636H223.309V32.5057H223.611L239.325 9.63636H246.055V46H238.366V23.1129H238.1L222.297 46H215.639V9.63636ZM234.389 0.119316H239.662C239.651 2.27367 238.852 4.00781 237.265 5.32173C235.691 6.63565 233.56 7.29261 230.873 7.29261C228.175 7.29261 226.038 6.63565 224.464 5.32173C222.889 4.00781 222.102 2.27367 222.102 0.119316H227.34C227.328 0.936078 227.589 1.66998 228.121 2.32102C228.666 2.97206 229.583 3.29758 230.873 3.29758C232.128 3.29758 233.028 2.97798 233.572 2.33878C234.117 1.69957 234.389 0.959751 234.389 0.119316ZM274.406 46L262.723 30.4993H260.095V46H252.407V9.63636H260.095V24.1605H261.64L273.713 9.63636H283.284L269.097 26.5043L283.941 46H274.406ZM287.807 9.63636H295.477V32.5057H295.779L311.493 9.63636H318.222V46H310.534V23.1129H310.268L294.465 46H287.807V9.63636Z" fill="url(#paint0_linear_2340_189)"/>
<defs>
<linearGradient id="paint0_linear_2340_189" x1="-3" y1="51" x2="331" y2="51" gradientUnits="userSpaceOnUse">
<stop stop-color="#FA86D9"/>
<stop offset="0.499" stop-color="#F04FC3"/>
<stop offset="1" stop-color="#E041B3"/>
</linearGradient>
</defs>
</svg>
