<svg width="701" height="582" viewBox="0 0 701 582" fill="none" xmlns="http://www.w3.org/2000/svg">
<path d="M134.872 219L82.6705 130.79H74.3608L59.6591 219H0.426136L36.6477 0.818175H95.8807L82.2443 83.0625H89.9148L166.193 0.818175H240.767L140.412 105.648L209.233 219H134.872ZM281.809 219H217.889L326.127 0.818175H407.093L442.889 219H378.968L357.662 60.9034H355.957L281.809 219ZM284.366 132.92H404.537L396.866 177.239H276.696L284.366 132.92ZM448.136 271.415L464.329 173.403H479.67C485.281 170.278 490.607 165.875 495.65 160.193C500.763 154.511 505.664 146.379 510.352 135.797C515.039 125.214 519.585 111.045 523.988 93.2898L546.573 0.818175H700.835L672.283 173.403H695.295L679.102 271.415H621.999L630.522 219H513.761L505.238 271.415H448.136ZM547.425 173.403H615.181L635.636 48.5455H591.744L581.09 93.2898C577.894 106.642 574.45 118.325 570.756 128.339C567.063 138.283 563.228 146.947 559.251 154.334C555.344 161.649 551.403 168.006 547.425 173.403ZM0.426136 582L36.6477 363.818H130.824C147.017 363.818 160.653 367.014 171.733 373.406C182.813 379.798 190.767 388.783 195.597 400.359C200.426 411.936 201.563 425.466 199.006 440.949C196.449 456.716 190.767 470.317 181.96 481.751C173.224 493.115 162.074 501.886 148.509 508.065C135.014 514.173 119.886 517.227 103.125 517.227H46.875L54.5455 471.205H98.8636C105.966 471.205 112.216 469.997 117.614 467.582C123.011 465.097 127.379 461.616 130.717 457.142C134.055 452.597 136.222 447.199 137.216 440.949C138.21 434.699 137.749 429.372 135.831 424.969C133.984 420.494 130.788 417.085 126.243 414.741C121.768 412.327 116.051 411.119 109.091 411.119H88.2102L59.6591 582H0.426136ZM259.091 437.114H304.261C322.656 437.114 338.21 440.061 350.923 445.956C363.707 451.851 373.011 460.161 378.835 470.885C384.73 481.609 386.435 494.216 383.949 508.705C381.605 523.193 375.675 535.942 366.158 546.95C356.641 557.959 344.496 566.553 329.723 572.732C314.95 578.911 298.366 582 279.972 582H198.58L234.801 363.818H294.034L265.483 535.551H287.642C294.815 535.551 301.03 534.379 306.286 532.036C311.612 529.692 315.874 526.46 319.07 522.341C322.337 518.222 324.361 513.534 325.142 508.278C326.491 500.821 324.751 494.642 319.922 489.741C315.092 484.77 307.315 482.284 296.591 482.284H251.42L259.091 437.114ZM482.386 363.818L446.165 582H386.932L423.153 363.818H482.386Z" fill="url(#paint0_linear_2252_49)"/>
<defs>
<linearGradient id="paint0_linear_2252_49" x1="0" y1="276" x2="862" y2="276" gradientUnits="userSpaceOnUse">
<stop stop-color="#FA86D9"/>
<stop offset="0.499" stop-color="#F04FC3"/>
<stop offset="1" stop-color="#E041B3"/>
</linearGradient>
</defs>
</svg>
