<svg width="8" height="8" viewBox="0 0 8 8" fill="none" xmlns="http://www.w3.org/2000/svg">
<path d="M7.76611 7.76611C7.45427 8.07796 6.94258 8.07796 6.63074 7.76611L4 5.12747L1.36926 7.76611C1.05742 8.07796 0.545731 8.07796 0.233885 7.76611C-0.0779616 7.45427 -0.0779616 6.94258 0.233885 6.63074L2.87263 4L0.233885 1.36926C-0.0779616 1.05742 -0.0779616 0.545731 0.233885 0.233885C0.545731 -0.0779616 1.05742 -0.0779616 1.36926 0.233885L4 2.87253L6.63074 0.233885C6.94258 -0.0779616 7.45427 -0.0779616 7.76611 0.233885C8.07796 0.545731 8.07796 1.05742 7.76611 1.36926L5.12737 4L7.76611 6.63074C8.07796 6.94258 8.07796 7.45427 7.76611 7.76611Z" fill="black"/>
</svg>
