<svg width="51" height="49" viewBox="0 0 51 49" fill="none" xmlns="http://www.w3.org/2000/svg">
<g filter="url(#filter0_i_2312_286)">
<path fill-rule="evenodd" clip-rule="evenodd" d="M24.8119 17.5C20.8313 17.5 17.604 20.6342 17.604 24.5C17.604 28.3658 20.8313 31.5 24.8119 31.5C28.7925 31.5 32.0198 28.3658 32.0198 24.5C32.0198 20.6342 28.7925 17.5 24.8119 17.5ZM14 24.5C14 18.7005 18.8401 14 24.8119 14C30.7836 14 35.6238 18.7005 35.6238 24.5C35.6238 30.2995 30.7836 35 24.8119 35C18.8401 35 14 30.2995 14 24.5Z" fill="#FFDDF5"/>
</g>
<g filter="url(#filter1_i_2312_286)">
<path fill-rule="evenodd" clip-rule="evenodd" d="M18.0342 6.55727C18.2685 2.89802 21.4003 0 25.2277 0C29.0551 0 32.187 2.89802 32.4212 6.55727C32.6861 6.65702 32.9474 6.762 33.2051 6.87225C36.036 4.44675 40.359 4.54652 43.0674 7.17677C45.7739 9.80527 45.8766 14.0035 43.3791 16.7527C43.4926 17.003 43.6007 17.2567 43.7034 17.514C47.4713 17.7415 50.4554 20.783 50.4554 24.5C50.4554 28.217 47.4713 31.2585 43.7034 31.486C43.6007 31.7433 43.4926 31.997 43.3791 32.2473C45.8766 34.9965 45.7739 39.1947 43.0655 41.8232C40.3589 44.4535 36.036 44.5532 33.2051 42.1277C32.9474 42.238 32.6861 42.343 32.4212 42.4427C32.187 46.102 29.0551 49 25.2277 49C21.4003 49 18.2685 46.102 18.0342 42.4427C17.7693 42.343 17.508 42.238 17.2504 42.1277C14.4194 44.5532 10.0965 44.4535 7.38994 41.8232C4.68157 39.1947 4.57884 34.9965 7.07638 32.2473C6.96285 31.997 6.85475 31.7433 6.75204 31.486C2.9841 31.2585 0 28.217 0 24.5C0 20.783 2.9841 17.7415 6.75204 17.514C6.85475 17.2567 6.96285 17.003 7.07638 16.7527C4.57884 14.0035 4.68157 9.80527 7.38994 7.17677C10.0965 4.54652 14.4194 4.44675 17.2504 6.87225C17.508 6.762 17.7693 6.65702 18.0342 6.55727ZM9.93795 14.6003C10.8534 15.491 11.021 16.8069 10.5146 17.8622C10.3236 18.2647 10.1488 18.6742 9.99019 19.0925C9.57934 20.1862 8.50354 21 7.20792 21C5.21673 21 3.60396 22.5662 3.60396 24.5C3.60396 26.4338 5.21673 28 7.20792 28C8.50354 28 9.57934 28.8138 9.99019 29.9075C10.1488 30.3258 10.3236 30.7353 10.5146 31.1378C11.021 32.1931 10.8534 33.509 9.93795 34.3997C8.5306 35.7665 8.5306 37.982 9.93795 39.3487C11.3453 40.7155 13.6266 40.7155 15.034 39.3487C15.9512 38.4597 17.3062 38.297 18.3928 38.7887C18.8072 38.9742 19.2289 39.144 19.6596 39.298C20.7858 39.697 21.6238 40.7417 21.6238 42C21.6238 43.9338 23.2365 45.5 25.2277 45.5C27.2189 45.5 28.8317 43.9338 28.8317 42C28.8317 40.7417 29.6697 39.697 30.7959 39.298C31.2266 39.144 31.65 38.9742 32.0627 38.7887C33.1493 38.297 34.5043 38.4597 35.4215 39.3487C36.8288 40.7155 39.1101 40.7155 40.5175 39.3487C41.9248 37.982 41.9248 35.7665 40.5175 34.3997C39.6021 33.509 39.4345 32.1931 39.9408 31.1378C40.1319 30.7353 40.3067 30.3258 40.4653 29.9075C40.8761 28.8138 41.9519 28 43.2475 28C45.2387 28 46.8515 26.4338 46.8515 24.5C46.8515 22.5662 45.2387 21 43.2475 21C41.9519 21 40.8761 20.1862 40.4653 19.0925C40.3067 18.6742 40.1319 18.2647 39.9408 17.8622C39.4345 16.8069 39.6021 15.491 40.5175 14.6003C41.9248 13.2335 41.9248 11.018 40.5175 9.65128C39.1101 8.28453 36.8288 8.28453 35.4215 9.65128C34.5043 10.5403 33.1493 10.703 32.0627 10.2113C31.65 10.0258 31.2266 9.85601 30.7959 9.70201C29.6697 9.30301 28.8317 8.25825 28.8317 7C28.8317 5.06625 27.2189 3.5 25.2277 3.5C23.2365 3.5 21.6238 5.06625 21.6238 7C21.6238 8.25825 20.7858 9.30301 19.6596 9.70201C19.2289 9.85601 18.8054 10.0258 18.3928 10.2113C17.3062 10.703 15.9512 10.5403 15.034 9.65128C13.6266 8.28453 11.3453 8.28453 9.93795 9.65128C8.5306 11.018 8.5306 13.2335 9.93795 14.6003Z" fill="#FFDDF5"/>
</g>
<defs>
<filter id="filter0_i_2312_286" x="14" y="14" width="21.6238" height="25" filterUnits="userSpaceOnUse" color-interpolation-filters="sRGB">
<feFlood flood-opacity="0" result="BackgroundImageFix"/>
<feBlend mode="normal" in="SourceGraphic" in2="BackgroundImageFix" result="shape"/>
<feColorMatrix in="SourceAlpha" type="matrix" values="0 0 0 0 0 0 0 0 0 0 0 0 0 0 0 0 0 0 127 0" result="hardAlpha"/>
<feOffset dy="4"/>
<feGaussianBlur stdDeviation="2"/>
<feComposite in2="hardAlpha" operator="arithmetic" k2="-1" k3="1"/>
<feColorMatrix type="matrix" values="0 0 0 0 0 0 0 0 0 0 0 0 0 0 0 0 0 0 0.25 0"/>
<feBlend mode="normal" in2="shape" result="effect1_innerShadow_2312_286"/>
</filter>
<filter id="filter1_i_2312_286" x="0" y="0" width="50.4556" height="53" filterUnits="userSpaceOnUse" color-interpolation-filters="sRGB">
<feFlood flood-opacity="0" result="BackgroundImageFix"/>
<feBlend mode="normal" in="SourceGraphic" in2="BackgroundImageFix" result="shape"/>
<feColorMatrix in="SourceAlpha" type="matrix" values="0 0 0 0 0 0 0 0 0 0 0 0 0 0 0 0 0 0 127 0" result="hardAlpha"/>
<feOffset dy="4"/>
<feGaussianBlur stdDeviation="2"/>
<feComposite in2="hardAlpha" operator="arithmetic" k2="-1" k3="1"/>
<feColorMatrix type="matrix" values="0 0 0 0 0 0 0 0 0 0 0 0 0 0 0 0 0 0 0.25 0"/>
<feBlend mode="normal" in2="shape" result="effect1_innerShadow_2312_286"/>
</filter>
</defs>
</svg>
